<?xml version="1.0" standalone="no"?>
<!DOCTYPE svg PUBLIC "-//W3C//DTD SVG 20010904//EN"
 "http://www.w3.org/TR/2001/REC-SVG-20010904/DTD/svg10.dtd">
<svg version="1.0" xmlns="http://www.w3.org/2000/svg"
 width="550.000000pt" height="550.000000pt" viewBox="0 0 550.000000 550.000000"
 preserveAspectRatio="xMidYMid meet">
<metadata>
Created by potrace 1.16, written by Peter Selinger 2001-2019
</metadata>
<g transform="translate(0.000000,550.000000) scale(0.100000,-0.100000)"
fill="#000000" stroke="none">
<path d="M2660 4491 c-85 -26 -161 -103 -186 -189 -35 -121 9 -268 108 -357
100 -90 209 -94 320 -12 33 25 84 95 104 144 14 35 6 29 -88 -62 l-103 -100
108 111 108 110 0 65 c1 129 -48 216 -152 268 -52 26 -73 31 -128 30 -36 0
-77 -4 -91 -8z"/>
<path d="M2185 3960 c-26 -10 -95 -86 -95 -104 0 -10 -18 -15 -60 -18 -95 -7
-142 -54 -154 -153 l-6 -50 165 -165 166 -165 33 36 c29 31 35 46 41 107 l7
71 46 -19 47 -18 185 181 185 182 -179 -182 c-120 -122 -175 -184 -165 -187
175 -60 410 -70 599 -26 47 11 92 23 99 26 10 3 -43 64 -165 187 l-179 182
181 -179 181 -178 95 41 c158 69 214 134 206 237 -6 66 -53 161 -93 186 -47
28 -112 23 -202 -16 -101 -44 -177 -66 -284 -81 -141 -19 -317 11 -467 81 -76
34 -141 43 -187 24z"/>
<path d="M1393 3710 c-122 -25 -211 -123 -229 -254 -14 -96 -5 -92 171 84 133
133 162 166 147 172 -21 8 -36 8 -89 -2z"/>
<path d="M1341 3536 l-174 -175 17 -44 c24 -63 95 -131 164 -157 78 -30 196
-30 274 -1 62 24 132 90 145 138 44 155 -72 357 -232 407 -16 5 -54 -28 -194
-168z"/>
<path d="M1863 3541 c-28 -190 -107 -346 -248 -487 -49 -50 -101 -99 -115
-108 l-24 -16 78 -79 c66 -66 86 -81 120 -86 23 -4 72 -22 109 -41 l69 -35 80
78 c140 137 224 267 286 443 56 163 69 170 -255 -150 l-298 -295 265 268 265
267 -160 160 -161 161 -11 -80z"/>
<path d="M1440 2888 c-26 -43 -26 -117 0 -168 11 -21 24 -41 29 -44 5 -3 27
12 49 34 22 22 54 43 71 46 17 4 31 9 31 13 0 9 -143 151 -152 151 -5 0 -17
-15 -28 -32z"/>
<path d="M3995 2807 c-17 -27 -84 -67 -111 -67 -13 0 6 -24 61 -79 43 -44 83
-77 88 -74 5 3 18 26 29 50 23 53 19 110 -12 161 -23 38 -34 40 -55 9z"/>
<path d="M3552 2728 c-89 -90 -159 -178 -142 -178 5 0 10 -7 10 -15 0 -8 -9
-15 -19 -15 -21 0 -67 -73 -101 -159 l-19 -49 46 -12 47 -11 223 223 223 222
-40 12 c-22 6 -59 23 -84 38 -24 14 -48 26 -53 26 -5 0 -46 -37 -91 -82z"/>
<path d="M3583 2475 c-142 -146 -260 -271 -262 -278 -2 -6 18 9 45 34 l49 47
135 -39 c152 -43 150 -43 150 -29 0 6 24 47 54 93 56 86 114 151 206 229 l54
46 -79 81 c-43 45 -82 81 -86 81 -4 0 -124 -119 -266 -265z"/>
<path d="M3895 2354 c-113 -36 -175 -115 -175 -222 0 -92 31 -163 102 -236 55
-57 60 -60 73 -43 7 11 66 121 131 245 65 125 121 230 126 233 19 12 -51 32
-127 35 -54 3 -96 -1 -130 -12z"/>
<path d="M4165 1953 c-89 -90 -158 -163 -155 -163 3 0 41 36 85 81 81 82 229
216 209 189 -13 -16 -42 -66 -81 -139 -13 -24 -31 -54 -39 -65 -22 -31 -17
-38 15 -22 73 38 135 152 129 238 l-3 43 -160 -162z"/>
</g>
</svg>
